<svg xmlns="http://www.w3.org/2000/svg" viewBox="0 0 1366.14 365.08"><defs><style>.cls-1{isolation:isolate;}.cls-2{fill:#032e32;}.cls-3,.cls-4{fill:#eeaeaf;}.cls-4{opacity:0.44;mix-blend-mode:multiply;}.cls-5{fill:#3ab09a;}</style></defs><title>引言下裝飾</title><g class="cls-1"><g id="圖層_1" data-name="圖層 1"><polygon class="cls-2" points="0 0 526.82 336.49 852.41 148.07 1021.63 259.9 1366.14 0 0 0"/><polygon class="cls-3" points="1311.93 33.31 1214.57 46.5 1233.94 70.29 1020.74 231.13 853.24 120.44 515.05 316.15 538.6 356.83 851.6 175.69 1022.53 288.66 1263.64 106.77 1287 135.46 1311.93 33.31"/><polygon class="cls-4" points="851.6 175.69 1042.74 273.41 1022.53 288.66 851.6 175.69"/><polygon class="cls-5" points="182.46 64.2 162.99 64.2 162.99 44.94 160.4 44.94 160.4 64.2 140.93 64.2 140.93 199.76 160.4 199.76 160.4 204.28 162.99 204.28 162.99 199.76 182.46 199.76 182.46 64.2"/></g></g></svg>