<svg xmlns="http://www.w3.org/2000/svg" viewBox="0 0 1363.57 619.64"><defs><style>.cls-1{isolation:isolate;}.cls-10,.cls-2,.cls-27,.cls-6,.cls-9{fill:#81c4c9;}.cls-3{fill:#eeaeaf;}.cls-20,.cls-21,.cls-23,.cls-26,.cls-4{fill:none;stroke-miterlimit:10;}.cls-4{stroke:#666767;stroke-width:2.36px;}.cls-5{fill:#032e32;}.cls-6{opacity:0.36;}.cls-10,.cls-11,.cls-12,.cls-27,.cls-6,.cls-9{mix-blend-mode:multiply;}.cls-7{fill:#3ab09a;}.cls-8{fill:#eb7d82;}.cls-9{opacity:0.68;}.cls-11,.cls-12,.cls-25{fill:#e79288;}.cls-11{opacity:0.64;}.cls-13{fill:#344346;}.cls-14{fill:#ccbf73;}.cls-15{fill:#001b1f;}.cls-16{fill:#aad2af;}.cls-17{fill:#60a384;}.cls-18{fill:#194d4f;}.cls-19{fill:#033234;}.cls-20,.cls-21,.cls-23{stroke:#d2cdaa;}.cls-20{stroke-width:1.62px;}.cls-21{stroke-width:1.08px;}.cls-22{fill:#e69186;}.cls-23{stroke-width:1.29px;}.cls-24{fill:#d2cdaa;}.cls-26{stroke:#4e4d4d;stroke-width:2.33px;}.cls-27{opacity:0.37;}</style></defs><title>爬山_工作區域 1</title><g class="cls-1"><g id="圖層_1" data-name="圖層 1"><polygon class="cls-2" points="1333.38 396.64 1332.8 394.15 1332.43 393.72 1331.19 392.29 1214.34 257.5 952.63 328.52 475.61 167.34 434.11 198.71 383.62 198.71 268.05 103.36 240.24 126.84 118.08 1.09 57.49 2.67 0.28 92.07 0.28 396.64 0.03 540.95 0 559.13 0.28 559.26 62.3 588.12 431.64 588.12 688.79 525.82 854.81 485.6 966.25 524.03 1020.7 506.15 1114.16 475.47 1333.5 397.16 1333.38 396.64"/><polygon class="cls-3" points="108.47 1.34 180.65 138.46 240.24 126.84 118.08 1.08 108.47 1.34"/><polygon class="cls-3" points="268.05 103.36 316.64 202.68 383.62 198.71 268.05 103.36"/><polygon class="cls-3" points="475.61 167.34 599.81 239.1 660.59 229.84 475.61 167.34"/><polygon class="cls-2" points="402.87 179.62 434.33 168.6 405.83 153.62 402.87 179.62"/><line class="cls-4" x1="405.83" y1="153.62" x2="399.62" y2="208.13"/><ellipse class="cls-5" cx="405.66" cy="153.76" rx="1.42" ry="1.36" transform="translate(207.01 539.43) rotate(-83.51)"/><polygon class="cls-2" points="552.19 170.64 583.65 159.63 555.15 144.64 552.19 170.64"/><line class="cls-4" x1="555.15" y1="144.64" x2="548.95" y2="199.15"/><ellipse class="cls-5" cx="554.98" cy="144.78" rx="1.42" ry="1.36" transform="matrix(0.11, -0.99, 0.99, 0.11, 348.37, 679.83)"/><polygon class="cls-6" points="475.61 167.34 569.35 261.28 714.12 261.65 952.63 328.52 660.59 229.84 599.81 239.1 475.61 167.34"/><polygon class="cls-7" points="743.76 188.02 730.01 188.02 730.01 174.43 728.19 174.43 728.19 188.02 714.45 188.02 714.45 283.69 728.19 283.69 728.19 299.88 730.01 299.88 730.01 283.69 743.76 283.69 743.76 188.02"/><polygon class="cls-7" points="613.92 242.84 600.18 242.84 600.18 162.9 598.35 162.9 598.35 242.84 584.61 242.84 584.61 272.16 598.35 272.16 598.35 288.35 600.18 288.35 600.18 272.16 613.92 272.16 613.92 242.84"/><polygon class="cls-8" points="706.58 221.6 692.83 221.6 692.83 156.74 691.01 156.74 691.01 221.6 677.26 221.6 677.26 261.65 691.01 261.65 691.01 282.19 692.83 282.19 692.83 261.65 706.58 261.65 706.58 221.6"/><polygon class="cls-8" points="661.96 167.66 648.22 167.66 648.22 135.83 646.39 135.83 646.39 167.66 632.65 167.66 632.65 240.75 646.39 240.75 646.39 261.28 648.22 261.28 648.22 240.75 661.96 240.75 661.96 167.66"/><polygon class="cls-7" points="788.99 249.56 775.24 249.56 775.24 235.96 773.42 235.96 773.42 249.56 759.67 249.56 759.67 345.22 773.42 345.22 773.42 348.42 775.24 348.42 775.24 345.22 788.99 345.22 788.99 249.56"/><polygon class="cls-8" points="875.98 283.14 862.23 283.14 862.23 218.28 860.41 218.28 860.41 283.14 846.66 283.14 846.66 323.19 860.41 323.19 860.41 343.72 862.23 343.72 862.23 323.19 875.98 323.19 875.98 283.14"/><polygon class="cls-8" points="831.36 229.19 817.62 229.19 817.62 197.37 815.79 197.37 815.79 229.19 802.05 229.19 802.05 302.28 815.79 302.28 815.79 322.82 817.62 322.82 817.62 302.28 831.36 302.28 831.36 229.19"/><polygon class="cls-6" points="268.05 103.36 316.64 202.68 434.11 198.71 311.08 221.57 268.05 103.36"/><polygon class="cls-6" points="121.28 25.66 180.65 138.46 240.24 126.84 174.36 149.5 121.28 25.66"/><polygon class="cls-9" points="40.29 128.37 117.45 235.06 127.96 212.18 40.29 128.37"/><polygon class="cls-9" points="91.88 290.73 167.42 318.63 159.01 333.31 91.88 290.73"/><polygon class="cls-10" points="743.76 188.02 734.11 283.69 743.76 283.69 743.76 188.02"/><polygon class="cls-10" points="788.99 248.06 778.97 345.22 788.99 345.22 788.99 248.06"/><polygon class="cls-11" points="831.36 229.19 822.45 302.28 831.36 302.28 831.36 229.19"/><polygon class="cls-11" points="661.96 167.68 653.05 240.77 661.96 240.77 661.96 167.68"/><polygon class="cls-12" points="706.58 221.6 697.88 261.65 706.58 261.65 706.58 221.6"/><polygon class="cls-12" points="875.98 283.1 867.28 323.15 875.98 323.15 875.98 283.1"/><polygon class="cls-10" points="613.92 242.84 602.77 272.16 613.92 272.16 613.92 242.84"/><polygon class="cls-3" points="1332.42 392.52 1214.34 257.5 1213.26 323.15 1329.46 391.96 1332.43 393.72 1332.74 393.91 1332.42 392.52"/><path class="cls-13" d="M294.52,155.8h0l2.32-13.6,14,2.13-1.57-5.41L294.08,137l-3.75,16.33-10.14.67c-.28,0-.26.37,0,.4l6.46.64-3.42,1.39,11.06-.62.2,0Z"/><path class="cls-14" d="M355.11,201.53l9.94-38.47-4.5-2.23-10.07,37.9-10.15.56c-.28,0-.26.37,0,.4l7.2.9-3.71,1.46Z"/><path class="cls-15" d="M395.62,112.5c2.85-.56,9.66-4.92,11.7-6.59,14.22-11.69,27.5-34.87,23.35-38.34C426.23,63.87,398,86.35,398,86.35S373.63,104.2,382.8,111C386.88,114,391.8,113.25,395.62,112.5Z"/><path class="cls-15" d="M311.89,102.43c-2.5-1.48-7.49-7.84-8.85-10.1-9.54-15.74-14.38-42-9.31-43.91,5.42-2,24.62,28.57,24.62,28.57s17,24.91,6.13,28.27C319.64,106.75,315.24,104.41,311.89,102.43Z"/><path class="cls-16" d="M382.69,147.66A51.86,51.86,0,0,0,390,163.27c3.74,5.36,8.77,10.23,7.22,13a2.73,2.73,0,0,1-1.15,1.06c-3.62,2-10.58-2.82-14-7.58-4.76-6.69-3.52-14.81-3.05-17.27Z"/><path class="cls-17" d="M382.94,138.4a78,78,0,0,0,17.68,18.43c7.83,5.79,17.26,10.33,16.36,14.9a3.85,3.85,0,0,1-1.15,2c-4.22,4.35-16.37.73-23.4-4.39-9.89-7.19-11.91-19-12.38-22.6Z"/><path class="cls-15" d="M318.06,151.48a12.41,12.41,0,0,1-1.85-24.43Z"/><path class="cls-18" d="M398.8,123.35c-4.69,27.48-29.31,46.2-55,41.81s-42.69-30.21-38-57.69,31.33-58,57-53.66S403.49,95.87,398.8,123.35Z"/><path class="cls-15" d="M375.68,158.79c-2.3,7.81-9.7,12.52-16.54,10.51s-10.53-10-8.23-17.79,7.38-13.21,14.22-11.2S378,151,375.68,158.79Z"/><path class="cls-19" d="M396.8,133a11.49,11.49,0,0,1-3.88-.66,11.57,11.57,0,0,1-13.79-.16,11.3,11.3,0,0,1-7,2.34,11.09,11.09,0,0,1-8-3.25,9.56,9.56,0,0,1-1.11-1.36,11.21,11.21,0,0,1-7.8,3,10.88,10.88,0,0,1-9.07-4.6,11.07,11.07,0,0,1-9,2.28,11.32,11.32,0,0,1-6.49-3.49,10.72,10.72,0,0,1-1.73.74,11.56,11.56,0,0,1-5.55.4,10.94,10.94,0,0,1-8.19-6.07,11.19,11.19,0,0,1-8.2,1.69c-5.76-1-9.71-5.93-8.84-11.06a9.5,9.5,0,0,1,8-7.49c5.67-26.89,31.59-55.78,56.6-51.51,16.54,2.83,28.65,19.48,33.92,38.32a77.45,77.45,0,0,1,2.89,22.36,10.29,10.29,0,0,1,6.94,5.44h0a8.61,8.61,0,0,1,.81,3.64C407.39,128.77,402.65,133,396.8,133Z"/><path class="cls-16" d="M358.55,56.08s-2.49-14.94-7.66-13.3-3.24,14.18,5,16a3.14,3.14,0,0,1,2.63-2.74Z"/><path class="cls-17" d="M355.92,58.82s-3-19,7.5-22.35S364,54,364,54a10.88,10.88,0,0,0-8,4.79Z"/><path class="cls-14" d="M322.38,103.62l10.24-5.68-9.44-2.82,13.22-2.67a15.23,15.23,0,0,0-.86,4.23,11.35,11.35,0,0,0,.6,4.4Z"/><path class="cls-20" d="M340,105a10.27,10.27,0,0,1-3.52-3.74,8.5,8.5,0,0,1-1-3.52,8.84,8.84,0,0,1,.4-3.24A9.31,9.31,0,0,1,340,89.29"/><path class="cls-21" d="M337.58,71.24a11.73,11.73,0,0,0-2.35-1,8.25,8.25,0,0,0-3.41-.23,6.45,6.45,0,0,0-2.61.93"/><path class="cls-21" d="M361.81,77a11,11,0,0,0-1.89-1.69,8.33,8.33,0,0,0-3.13-1.36,6.45,6.45,0,0,0-2.78,0"/><polygon class="cls-22" points="340.54 74.35 336.51 83.64 332.68 82.34 340.54 74.35"/><path class="cls-23" d="M336.36,84.06l-3.29-1.17a.59.59,0,0,1-.21-1l12.46-12.68"/><path class="cls-24" d="M336.1,67.94a4.29,4.29,0,0,1-.8,2.35,8.07,8.07,0,0,0-3.4-.24,4.63,4.63,0,0,1-.57-2.56c.12-1.93,1.28-3.4,2.6-3.27S336.22,66,336.1,67.94Z"/><path class="cls-24" d="M361.52,73.39a4.48,4.48,0,0,1-1.54,2A8.33,8.33,0,0,0,356.85,74a4.48,4.48,0,0,1,.32-2.6c.75-1.78,2.33-2.78,3.53-2.22S362.27,71.61,361.52,73.39Z"/><polygon class="cls-25" points="330.98 67.07 301.51 31.48 346.07 35.34 330.98 67.07"/><line class="cls-26" x1="314.43" y1="101.85" x2="346.07" y2="35.35"/><circle class="cls-5" cx="346.17" cy="35.63" r="1.9"/><polygon class="cls-5" points="1363.57 525.82 1265.15 554.18 1147.34 588.12 966.25 536.66 1020.7 506.15 1094.12 465.03 1216.19 396.64 1250.94 377.17 1329.46 391.96 1329.47 391.96 1331.19 392.29 1332.42 392.52 1332.74 393.91 1332.8 394.15 1333.38 396.64 1333.5 397.16 1363.57 525.82"/><polygon class="cls-27" points="722.75 515.55 423.2 588.12 98.24 588.12 107.06 517.52 122.16 396.64 123.04 389.6 147.57 346.8 156.29 331.58 164.36 317.5 164.47 317.3 88.93 289.41 115.27 232.04 125 210.85 43.76 133.17 37.35 127.04 53.51 8.89 54.54 1.36 105.53 0 105.71 1.41 121.59 124.41 275.64 217.39 290.39 345.2 347.15 359.2 470.22 389.6 484.34 396.64 537.67 423.24 722.75 515.55"/><polygon class="cls-5" points="1330.27 588.12 0.28 588.12 0.28 559.26 0 559.13 0.03 540.95 0.28 540.9 69.14 525.82 107.06 517.52 537.67 423.24 659.15 396.64 759.82 374.6 898.46 363.04 962.92 396.64 1094.12 465.03 1114.16 475.47 1210.75 525.82 1330.27 588.12"/><rect class="cls-5" y="525.82" width="1363.57" height="93.82"/></g></g></svg>