<svg xmlns="http://www.w3.org/2000/svg" xmlns:xlink="http://www.w3.org/1999/xlink" viewBox="0 0 1920 1080"><defs><style>.cls-1{fill:none;}.cls-2,.cls-4{fill:#2d3b3d;}.cls-3,.cls-4{opacity:0.23;}.cls-3,.cls-4,.cls-7{mix-blend-mode:multiply;}.cls-5{isolation:isolate;}.cls-6{fill:#032e32;}.cls-7{opacity:0.15;fill:url(#新增圖樣);}</style><pattern id="新增圖樣" data-name="新增圖樣" width="525.41" height="445.96" patternUnits="userSpaceOnUse" viewBox="0 0 525.41 445.96"><rect class="cls-1" width="525.41" height="445.96"/><path class="cls-2" d="M247.38,144.19l0-.34c.08-.69.15-1.38.21-2.08,0-.3,0-.6.07-.9,0-.53.08-1.05.11-1.58l.06-1,.06-1.52,0-1c0-.52,0-1.05,0-1.57,0-.31,0-.62,0-.93,0-.61,0-1.22,0-1.83,0-.23,0-.46,0-.69,0-.84-.07-1.69-.12-2.53,0-.13,0-.26,0-.39,0-.61-.09-1.23-.14-1.85v0c-.09-1.09-.2-2.18-.34-3.27a89.61,89.61,0,0,0-6.09-23.25h0c-.06-.15-.12-.3-.19-.44l-.3-.72c-.17-.41-.35-.81-.53-1.21-.1-.23-.2-.46-.31-.69-.2-.44-.4-.87-.61-1.3-.08-.19-.17-.38-.26-.56l-.9-1.82-.18-.33c-.25-.49-.51-1-.77-1.47-.12-.21-.24-.42-.35-.63l-.65-1.15-.39-.69-.65-1.09-.41-.67c-.24-.39-.48-.78-.73-1.16-.11-.19-.23-.37-.35-.56-.36-.56-.72-1.11-1.1-1.66l-.23-.34c-.3-.44-.61-.88-.92-1.31-.14-.21-.29-.41-.43-.61l-.76-1c-.16-.22-.32-.44-.49-.65s-.49-.66-.75-1l-.49-.63-.83-1-.44-.54c-.42-.5-.84-1-1.27-1.49l-.32-.36-1-1.14-.54-.57c-.27-.3-.55-.6-.83-.89l-.59-.61-.82-.84-.6-.6-.89-.86-.55-.53-1.4-1.3c-.15-.12-.29-.25-.43-.38l-1.08-.94-.63-.54-.9-.75-.68-.56-.88-.71-.7-.54-.93-.71-.66-.5-1.37-1-.7-.49-1.11-.76-.73-.49-.93-.61-.78-.49q-.47-.3-.93-.57c-.26-.16-.52-.33-.78-.48l-1-.57-.76-.44-1.32-.73-1-.52-1.13-.6-.82-.41-1-.48-.86-.41-1-.44-.87-.4-1-.43-.84-.36-1.29-.53-1.16-.45-1.17-.45-.88-.31-.35-.13-.52-17.09v-.3L168.45,44.4l-.78-.09-.95-.09-1.1-.1-1-.08L163.54,44l-1-.06-1.13,0-.95,0-1.42,0h-2.64l-.95,0-1.16,0-1,0-1.14.06-1,.07-1.19.1-.93.09-1.53.17-.55.06-1.35.18-.86.12-1.1.18-1.13.18-1.06.2-1.14.21-1.06.22-1.12.24-1.07.26-1.08.25-1.09.29-1,.27-1.12.33-1,.28-1.15.36-.54.17h0A89.55,89.55,0,0,0,95.62,69l-2.76-2.61L83.92,57.9,85.15,81a90.16,90.16,0,0,0-7.68,12.67,7.59,7.59,0,0,0-7.7-1.18c-3.94,1.83-5.26,7.33-3,12.28a11.4,11.4,0,0,0,4.46,5.06A90.06,90.06,0,0,0,88.6,191h0l.15.17c.6.73,1.21,1.44,1.84,2.15l.31.35c.61.68,1.22,1.35,1.84,2l.11.12q1.06,18.9,3.39,25a10.2,10.2,0,0,0,.8,1.65h0l0,0,.12.18a.64.64,0,0,1,.1.13l.11.14.14.14a.67.67,0,0,0,.14.15l.15.13.1.07.13.08.11.05.13.06.1,0,.17,0h.06q3.33.33,8.3-15.89c.88.62,1.86,1.28,2.94,2,1.3.81,2.75,1.66,4.34,2.5s3.46,1.74,5.42,2.55a66.68,66.68,0,0,0,7.1,2.5,64.22,64.22,0,0,0,7.92,1.74,66.11,66.11,0,0,0,17.22.42q.3,3.08.64,5.62c.74,5.55,1.68,9.24,2.8,11h0l0,0,.08.12.1.15a1.47,1.47,0,0,0,.1.13l.09.12.12.12.08.09.14.13.05,0,.18.13,0,0a1.49,1.49,0,0,0,.63.22c2,.2,7.19-9,10.12-17.95l.26,0h0a106.82,106.82,0,0,0,31-8.49c1.5-.67,3-1.38,4.55-2.16,2-1,4-2.1,5.85-3.18a106.52,106.52,0,0,0,15.7-11.23q6,8.94,8.93,9.4h.49a1.28,1.28,0,0,0,.34-.07,1.72,1.72,0,0,0,.77-.59A7.9,7.9,0,0,0,236,199q.3-5.57-1.76-17.49a90.37,90.37,0,0,0,6-11.21,1.47,1.47,0,0,0,.1-.22c1.27,1.87,2.43,3.44,3.49,4.74,2.74,3.37,4.77,4.82,6.09,4.33a1.75,1.75,0,0,0,.74-.58Q253.85,174.39,247.38,144.19Z"/><g class="cls-3"><line class="cls-2" x1="431.84" y1="82.93" x2="376.81" y2="193.58"/><polygon class="cls-2" points="374.54 192.45 429.57 81.8 434.12 84.06 379.09 194.71 374.54 192.45"/></g><polygon class="cls-4" points="426.01 82.1 401.85 132.28 355.05 74.23 426.01 82.1"/><path class="cls-2" d="M499.12,387.51a149.73,149.73,0,0,1-32.69.25A159.89,159.89,0,0,1,439.48,383l-39.56-80.84-37.05,30.33-76.57-41.4-18.75,15.5-6.62-64.33,52.32,4.88-9.73,17.17,52.29,27.89,38.41-35.16Z"/><polygon class="cls-2" points="40.85 337.55 131.36 358.59 116.35 292.13 40.85 337.55"/><polygon class="cls-2" points="217.32 411.56 206.9 353.55 171.93 378.94 217.32 411.56"/></pattern></defs><title>背景</title><g class="cls-5"><g id="圖層_1" data-name="圖層 1"><rect class="cls-6" width="1920" height="1080"/><rect class="cls-7" width="1920" height="1080"/></g></g></svg>