<svg xmlns="http://www.w3.org/2000/svg" viewBox="0 0 1355 471.66"><defs><style>.cls-1{isolation:isolate;}.cls-10,.cls-2,.cls-23{fill:#819fa6;}.cls-3{fill:#638294;}.cls-4{fill:#515758;}.cls-5{fill:#544546;opacity:0.34;}.cls-10,.cls-19,.cls-20,.cls-21,.cls-22,.cls-23,.cls-5,.cls-8,.cls-9{mix-blend-mode:multiply;}.cls-6,.cls-9{fill:#717071;}.cls-7{fill:#898989;}.cls-8{fill:#c8c9ca;opacity:0.71;}.cls-9{opacity:0.4;}.cls-11,.cls-19,.cls-20{fill:#3c5947;}.cls-12,.cls-21,.cls-22{fill:#48727f;}.cls-13{fill:#727c4a;}.cls-14{fill:#243c2e;}.cls-15{fill:#2e4838;}.cls-16{fill:#91967c;}.cls-17{fill:#375f6b;}.cls-18{fill:#365241;}.cls-19{opacity:0.51;}.cls-20{opacity:0.37;}.cls-22{opacity:0.47;}.cls-23{opacity:0.54;}.cls-24{fill:#ec6f65;}.cls-25{fill:none;stroke:#e79288;stroke-miterlimit:10;stroke-width:3px;}.cls-26{fill:#032e32;}.cls-27{fill:#344346;}.cls-28{fill:#dcdddd;}.cls-29{fill:#f7f8f8;}.cls-30{fill:#81c4c9;}</style></defs><title>首頁_桌子</title><g class="cls-1"><g id="圖層_1" data-name="圖層 1"><rect class="cls-2" y="148.8" width="1355" height="41.71"/><rect class="cls-3" y="187.25" width="1355" height="19.87"/><rect class="cls-4" y="205.72" width="1355" height="265.94"/><polygon class="cls-5" points="681.88 177.22 679.37 185.98 812.33 161.88 813.63 154.73 681.88 177.22"/><path class="cls-6" d="M685.72,179.66l127-24a1.35,1.35,0,0,0,1.1-1.41l-.59-9.79a1.35,1.35,0,0,0-1.6-1.25L683.41,167.44a3.43,3.43,0,0,0-2.88,3.91l1.08,5.72A3.44,3.44,0,0,0,685.72,179.66Z"/><path class="cls-7" d="M658.92,111.74l22.8,56,98.54-18.59L756.58,88.58A12.11,12.11,0,0,0,743,81.09L667.9,95.26A12.12,12.12,0,0,0,658.92,111.74Z"/><path class="cls-8" d="M743,81.09l-11.18,64.58-50.14,22.09,98.54-18.59L755.69,86.78S752.21,79.92,743,81.09Z"/><path class="cls-9" d="M680.89,173.27l132.74-20.68a2.87,2.87,0,0,1-.38,2.21,2.82,2.82,0,0,1-1.4,1.07L685.72,179.66a3.55,3.55,0,0,1-2.65-.48,3.49,3.49,0,0,1-1.46-2.11Z"/><polygon class="cls-10" points="1168.08 165.61 1292.03 165.61 1291.75 174.78 1164.2 174.78 1168.08 165.61"/><rect class="cls-11" x="1191.09" y="151.57" width="100.66" height="18.62"/><rect class="cls-12" x="1167.88" y="132.96" width="100.66" height="18.62"/><rect class="cls-13" x="1191.34" y="95.95" width="100.66" height="18.62"/><rect class="cls-11" x="1180.71" y="114.56" width="100.66" height="18.62"/><rect class="cls-14" x="1254.53" y="116.22" width="19.88" height="14.96"/><rect class="cls-15" x="1246.96" y="116.22" width="5.38" height="14.96"/><rect class="cls-11" x="1231.04" y="37.19" width="100.66" height="18.62" transform="translate(55.11 -328.15) rotate(14.91)"/><rect class="cls-14" x="1303.78" y="47.45" width="19.88" height="14.96" transform="translate(58.37 -336.19) rotate(14.91)"/><rect class="cls-15" x="1296.71" y="43.64" width="5.38" height="14.96" transform="translate(56.91 -332.63) rotate(14.91)"/><rect class="cls-16" x="1267.52" y="97.62" width="19.88" height="14.96"/><rect class="cls-16" x="1259.94" y="97.62" width="5.38" height="14.96"/><rect class="cls-17" x="1182.71" y="134.88" width="83.61" height="15.02"/><rect class="cls-18" x="1204.78" y="153.37" width="83.61" height="15.02"/><polygon class="cls-19" points="1180.71 126.99 1281.38 133.19 1180.71 133.19 1180.71 126.99"/><polygon class="cls-20" points="1191.34 108.21 1292.01 114.41 1191.34 114.41 1191.34 108.21"/><polygon class="cls-21" points="1167.88 145.38 1268.54 151.58 1167.88 151.58 1167.88 145.38"/><polygon class="cls-22" points="1191.09 164 1291.75 170.19 1191.09 170.19 1191.09 164"/><polygon class="cls-23" points="1184.02 165.61 1177.03 171.13 1291.75 174.78 1164.2 174.78 1168.08 165.61 1184.02 165.61"/><path class="cls-24" d="M976,158.34H903.14v-26a115.94,115.94,0,0,1,72.85,0Z"/><path class="cls-25" d="M907.66,133.43a139.34,139.34,0,0,0,30.28,3.78,139.36,139.36,0,0,0,34.27-3.78"/><polygon class="cls-26" points="883.75 149.91 871.92 176 1004.85 176 993.49 148.04 883.75 149.91"/><polygon class="cls-27" points="993.49 148.04 985.45 176 1004.85 176 993.49 148.04"/><path class="cls-28" d="M893.54,112.63a25.42,25.42,0,0,0,3.82-17.27c-2.21-15.27-18.25-25.58-35.82-23s-30,17-27.83,32.25,18.25,25.58,35.83,23a35,35,0,0,0,19.7-9.61l8.22,1.53Z"/><path class="cls-29" d="M893.47,114.65a25.41,25.41,0,0,0,3.82-17.27c-2.21-15.26-18.25-25.58-35.82-23s-30,17-27.83,32.24,18.25,25.58,35.82,23A35,35,0,0,0,889.17,120l8.52,3.56Z"/><polygon class="cls-30" points="876.15 93.92 881.36 97.48 883.47 96.55 883.33 91.25 885.18 90.24 888.73 109.16 882.98 109.99 881.41 106.9 885.94 107.12 883.59 100.84 881.94 101.08 874.17 96.2 876.15 93.92"/><path class="cls-30" d="M861,105.24l-6.71-4.47-3.11,3.85-6.31-9.86-2.92,1.42,7.91,19.23,6.79-2.23-.42-.67,3.77-.82Zm-6.53,2.37,1-2.4,1.89.11,0,4Z"/><polygon class="cls-30" points="862.83 99.4 866.17 105.69 868.84 104.64 869.51 97.05 872.32 96.64 876.29 108.35 874.16 108.65 871.46 104.03 870.72 109.15 865.64 109.89 860.55 100.72 862.83 99.4"/></g></g></svg>